<?xml version="1.0" standalone="no"?>
<!DOCTYPE svg PUBLIC "-//W3C//DTD SVG 20010904//EN"
 "http://www.w3.org/TR/2001/REC-SVG-20010904/DTD/svg10.dtd">
<svg version="1.0" xmlns="http://www.w3.org/2000/svg"
 width="700.000000pt" height="700.000000pt" viewBox="0 0 700.000000 700.000000"
 preserveAspectRatio="xMidYMid meet">
<metadata>
Created by potrace 1.14, written by Peter Selinger 2001-2017
</metadata>
<g transform="translate(0.000000,700.000000) scale(0.100000,-0.100000)"
fill="#000000" stroke="none">
<path d="M2605 5433 c-275 -140 -396 -227 -602 -431 -302 -301 -546 -795 -581
-1177 -14 -149 -6 -572 13 -664 63 -317 218 -652 418 -909 64 -82 198 -224
270 -287 103 -89 269 -205 377 -263 142 -76 400 -177 500 -196 35 -6 35 -6 15
13 -11 11 -58 47 -105 80 -47 33 -89 64 -95 68 -5 5 -30 24 -54 42 -125 98
-340 311 -440 436 -204 254 -324 515 -361 783 -12 91 -12 358 1 492 13 135 62
353 89 402 6 10 10 23 10 28 0 13 91 252 99 262 4 4 31 -36 61 -90 131 -233
342 -515 556 -742 23 -25 55 -59 71 -76 15 -17 65 -71 110 -120 245 -268 417
-529 498 -756 44 -125 47 -125 84 -17 37 106 89 212 170 344 52 86 141 213
172 245 8 8 32 35 53 60 32 37 86 96 251 274 135 145 318 361 375 441 69 98
176 267 220 348 30 53 57 94 61 90 3 -5 19 -42 34 -83 157 -430 170 -497 170
-870 -1 -235 -9 -301 -57 -460 -113 -373 -411 -746 -848 -1063 -159 -115 -186
-137 -166 -137 16 0 247 73 281 89 11 6 63 27 115 49 260 106 571 352 788 624
198 246 384 678 419 975 10 76 9 530 0 612 -19 167 -90 387 -192 596 -145 298
-336 539 -595 749 -98 79 -520 319 -535 304 -2 -2 26 -47 63 -99 87 -123 86
-122 126 -204 94 -194 94 -397 -1 -620 -19 -44 -48 -101 -64 -128 -16 -26 -29
-49 -29 -52 0 -10 -180 -266 -200 -285 -3 -3 -25 -30 -50 -60 -25 -30 -47 -57
-50 -60 -3 -3 -30 -34 -60 -70 -30 -36 -57 -67 -61 -70 -3 -3 -40 -48 -83
-100 -43 -52 -88 -106 -99 -120 -54 -64 -187 -275 -208 -329 -13 -33 -29 -63
-35 -65 -6 -2 -34 42 -63 98 -86 171 -181 302 -395 546 -61 69 -113 127 -116
130 -5 5 -75 92 -92 115 -4 6 -18 24 -31 40 -81 105 -191 282 -241 386 -111
236 -107 471 12 689 14 25 59 93 99 153 41 59 71 107 66 107 -4 0 -66 -30
-138 -67z"/>
</g>
</svg>
