<!-- Generated by IcoMoon.io -->
<svg version="1.1" xmlns="http://www.w3.org/2000/svg" width="768" height="768" viewBox="0 0 768 768">
<title></title>
<g id="icomoon-ignore">
</g>
<path d="M128 288h512v352h-512zM32 64c-17.664 0-32 14.336-32 32v160c0 17.664 14.336 32 32 32h32v384c0 17.664 14.336 32 32 32h576c17.664 0 32-14.336 32-32v-384h32c17.664 0 32-14.336 32-32v-160c0-17.664-14.336-32-32-32zM64 128h640v96h-640zM320 416h128c17.664 0 32-14.336 32-32s-14.336-32-32-32h-128c-17.664 0-32 14.336-32 32s14.336 32 32 32z"></path>
</svg>
