<!-- Generated by IcoMoon.io -->
<svg version="1.1" xmlns="http://www.w3.org/2000/svg" width="768" height="768" viewBox="0 0 768 768">
<title></title>
<g id="icomoon-ignore">
</g>
<path d="M672 354.56v29.44c-0.032 79.52-32.288 151.456-84.48 203.584s-124.16 84.288-203.68 84.224-151.488-32.288-203.584-84.48-84.288-124.128-84.256-203.68 32.288-151.456 84.48-203.584 124.16-84.288 203.68-84.256c42.56 0.032 82.752 9.248 116.768 24.8 16.064 7.36 35.072 0.256 42.4-15.808s0.256-35.072-15.808-42.4c-42.464-19.392-91.712-30.56-143.328-30.592-97.184-0.064-185.248 39.328-248.96 102.944s-103.168 151.68-103.232 248.864 39.328 185.248 102.944 248.96 151.648 103.2 248.832 103.232 185.248-39.328 248.96-102.944 103.2-151.648 103.264-248.864v-29.44c0-17.664-14.336-32-32-32s-32 14.336-32 32zM681.376 105.376l-297.376 297.664-73.376-73.344c-12.512-12.512-32.768-12.512-45.248 0s-12.512 32.768 0 45.248l96 96c12.512 12.512 32.768 12.48 45.28 0l320-320.32c12.48-12.512 12.48-32.768-0.032-45.248s-32.768-12.48-45.248 0.032z"></path>
</svg>
