<!-- Generated by IcoMoon.io -->
<svg version="1.1" xmlns="http://www.w3.org/2000/svg" width="768" height="768" viewBox="0 0 768 768">
<title></title>
<g id="icomoon-ignore">
</g>
<path d="M384 672h288c17.664 0 32-14.336 32-32s-14.336-32-32-32h-288c-17.664 0-32 14.336-32 32s14.336 32 32 32zM505.376 89.376l-400 400c-3.904 3.872-6.944 8.96-8.416 14.88l-32 128c-1.248 4.8-1.344 10.176 0 15.52 4.288 17.152 21.664 27.584 38.816 23.296l128-32c5.344-1.312 10.56-4.128 14.88-8.416l400-400c19.488-19.488 29.248-45.12 29.248-70.624s-9.76-51.136-29.248-70.624-45.152-29.28-70.656-29.28-51.136 9.76-70.624 29.248zM550.624 134.624c7.008-7.008 16.128-10.496 25.376-10.496s18.368 3.488 25.376 10.496 10.496 16.128 10.496 25.376-3.488 18.368-10.496 25.376l-393.728 393.728-67.68 16.928 16.928-67.68z"></path>
</svg>
