<!-- Generated by IcoMoon.io -->
<svg version="1.1" xmlns="http://www.w3.org/2000/svg" width="768" height="768" viewBox="0 0 768 768">
<title></title>
<g id="icomoon-ignore">
</g>
<path d="M544 416v192c0 8.832-3.552 16.8-9.376 22.624s-13.792 9.376-22.624 9.376h-352c-8.832 0-16.8-3.552-22.624-9.376s-9.376-13.792-9.376-22.624v-352c0-8.832 3.552-16.8 9.376-22.624s13.792-9.376 22.624-9.376h192c17.664 0 32-14.336 32-32s-14.336-32-32-32h-192c-26.496 0-50.56 10.784-67.872 28.128s-28.128 41.376-28.128 67.872v352c0 26.496 10.784 50.56 28.128 67.872s41.376 28.128 67.872 28.128h352c26.496 0 50.56-10.784 67.872-28.128s28.128-41.376 28.128-67.872v-192c0-17.664-14.336-32-32-32s-32 14.336-32 32zM342.624 470.624l297.376-297.376v114.752c0 17.664 14.336 32 32 32s32-14.336 32-32v-192c0-4.352-0.864-8.48-2.432-12.256s-3.872-7.296-6.912-10.336c-0.032-0.032-0.032-0.032-0.064-0.064-2.944-2.944-6.464-5.312-10.336-6.912-3.776-1.568-7.904-2.432-12.256-2.432h-192c-17.664 0-32 14.336-32 32s14.336 32 32 32h114.752l-297.376 297.376c-12.512 12.512-12.512 32.768 0 45.248s32.768 12.512 45.248 0z"></path>
</svg>
