<!-- Generated by IcoMoon.io -->
<svg version="1.1" xmlns="http://www.w3.org/2000/svg" width="768" height="768" viewBox="0 0 768 768">
<title></title>
<g id="icomoon-ignore">
</g>
<path d="M644.256 170.144c28.16 28.192 42.208 64.992 42.208 101.888s-14.080 73.696-42.208 101.824l-260.256 260.256-260.256-260.256c-28.128-28.128-42.176-64.928-42.176-101.856s14.048-73.728 42.176-101.856 64.928-42.176 101.856-42.176 73.728 14.048 101.856 42.176l33.92 33.92c12.512 12.512 32.768 12.512 45.248 0l33.984-33.984c28.128-28.128 64.928-42.176 101.824-42.144s73.696 14.080 101.824 42.208zM689.504 124.896c-40.608-40.608-93.888-60.928-147.072-60.96s-106.464 20.288-147.104 60.896l-11.328 11.36-11.296-11.296c-40.608-40.608-93.92-60.928-147.104-60.928s-106.496 20.32-147.104 60.928-60.928 93.92-60.928 147.104 20.32 106.496 60.928 147.104l282.88 282.88c12.512 12.512 32.768 12.512 45.248 0l282.88-282.88c40.608-40.608 60.928-93.888 60.96-147.072s-20.288-106.464-60.96-147.136z"></path>
</svg>
