<svg xmlns="http://www.w3.org/2000/svg" width="480" height="480" preserveAspectRatio="xMidYMid meet" version="1.0" viewBox="0 0 360 360"><g fill="#000" stroke="none"><path d="M1315 2782 c-118 -62 -166 -96 -262 -186 -139 -131 -248 -317 -300 -513 -22 -83 -26 -120 -27 -248 0 -88 5 -175 12 -210 68 -316 245 -568 511 -729 80 -48 222 -107 291 -121 30 -6 24 1 -50 52 -191 131 -374 342 -433 499 -49 128 -59 196 -54 344 5 146 22 225 77 369 l32 82 45 -79 c65 -114 160 -238 303 -390 69 -74 144 -159 168 -190 61 -80 127 -198 149 -264 10 -32 20 -58 23 -58 3 0 13 26 23 58 21 63 86 180 144 258 21 28 91 107 155 175 170 180 262 300 334 433 l32 58 30 -79 c58 -151 73 -219 79 -363 6 -150 -7 -231 -53 -352 -65 -171 -230 -360 -438 -503 -44 -30 -75 -55 -69 -55 22 0 198 62 248 88 150 75 320 225 408 359 68 103 122 224 154 344 24 93 27 120 27 264 -1 140 -4 172 -27 260 -63 235 -208 454 -396 595 -55 42 -246 150 -265 150 -3 0 17 -30 44 -66 166 -222 116 -418 -195 -768 -111 -125 -195 -242 -216 -301 -7 -19 -15 -35 -19 -34 -3 0 -20 31 -37 68 -35 74 -107 168 -228 301 -97 107 -197 256 -231 345 -51 137 -30 260 66 389 27 36 46 66 42 66 -4 0 -47 -22 -97 -48z" transform="translate(0.000000,360.000000) scale(0.100000,-0.100000)"/></g></svg>